<svg width="400" height="117" viewBox="0 0 400 117" fill="none" xmlns="http://www.w3.org/2000/svg">
<g clip-path="url(#clip0_229_95)">
<path d="M34.9 4.95C51.6 -2.61 71.8 -1.37 87.7 7.69C98.2 1.43 111 -0.9 123.2 0.32C137 1.75 150.1 8.53 159.5 18.7C167.4 27.2 172.7 38 174.5 49.5C176.6 62.4 174 76 168.5 87.4C163.3 96.6 155.5 104.3 146.1 109.5C128.9 119.4 105.7 119.3 88.4 109.6C87.4 108.8 86.5 110 85.6 110.3C75.2 115.7 63.3 117.8 51.7 116.5C38.4 115 25.7 108.7 16.5 99C8 90.3 2.3 78.8 0.6 66.7C-1.5 52.7 1.8 38 9.8 26.2C16 17 24.7 9.4 34.9 4.95ZM23.9 28.2C14.8 38.4 10.7 52.8 13.2 66.3C14.6 74.2 18.1 81.5 23.1 87.7C31.5 97.7 44.2 104 57.2 104.2C63.8 104.5 70.4 103.1 76.4 100.6C73.6 98 71.1 95.1 68.9 92C63.6 93.5 58 94.1 52.6 93.1C43.8 91.6 35.6 86.5 30.3 79.3C24 70.9 21.7 59.5 24.5 49.3C27 39.8 33.6 31.5 42.4 27.1C51.1 22.4 61.7 21.9 70.8 25.3C75.2 27 79.2 29.6 82.6 32.8C89.6 39.3 93.7 48.7 93.6 58.2C93.6 61.4 94.3 64.6 95.6 67.5C96.9 70.4 99 73.8 101.2 76C102.9 71.1 104.2 65.9 104.3 60.7C104.7 52.1 102.5 43.4 98.2 35.9C92.2 25.7 82.3 17.9 71 14.7C65 13 58.6 12.7 52.4 13.4C41.4 14.9 31.1 20.5 23.9 28.2ZM98.7 16C101.5 18.6 103.9 21.7 106.2 24.8C114.7 22 124.3 22.8 132.3 27C137.3 29.5 141.6 33.3 144.9 37.8C148.8 43.2 151.1 50 151.6 56.6C152 66.7 148 78.4 140.5 83.6C130.4 93.9 113.7 96.5 101.2 89.9C97.8 88.3 94.8 86 92.1 83.6C86.2 77.8 82.3 69.9 81.5 61.6C81.5 59.5 81.2 57.4 81.1 55.3C80.2 50 77.6 45.1 73.9 41.2C72 46.8 70.6 52.7 70.7 58.6C70.6 74.4 79.5 89.8 93 97.7C105.6 105.5 122.1 106.4 135.5 100.1C147.6 94.7 157 83.7 160.6 71C164.7 57.3 161.7 42 153.1 30.5C151.3 27.9 149 25.9 146.8 23.6C140.5 18.3 132.9 14.5 124.7 13.1C116 11.6 106.9 12.7 98.7 16ZM50.5 36.9C43.9 39.3 38.5 45 36.5 51.8C33.3 61.6 38 73.1 46.9 78.1C51.7 80.8 57.4 81.9 62.8 80.8C59.8 74.3 58.4 67.1 58.3 59.9C58 51.7 59.6 43.5 62.8 36C58.7 35.3 54.4 35.5 50.5 36.9ZM112.3 35.9C118.4 50 118.4 66.6 112.4 80.8C121.4 82.5 131.4 78.2 136 70.1C139.7 64.1 140.4 56.2 137.6 49.7C136 45.6 133.1 42.2 129.7 39.6C124.8 36.1 118.3 34.7 112.3 35.9Z" fill="#0EA5E9"/>
</g>
<path d="M207.6 89.4V28H222.8L240.3 62.8L257.8 28H273V89.4H261.9V42.9L239.2 85L216.4 42.8V89.4H207.6ZM289 38.1C285.4 38.1 282.5 35.2 282.5 31.6C282.5 28 285.4 25.2 289 25.2C292.5 25.2 295.4 28 295.4 31.6C295.4 35.2 292.5 38.1 289 38.1ZM283.4 89.4V44H294.5V89.4H283.4ZM304.2 89.4V44H315.3V47.9C318.7 44.8 323.2 43 328.3 43C338.8 43 346.2 50.5 346.2 61.1V89.4H335.2V62.8C335.2 56.6 331.3 52.7 325.2 52.7C321 52.7 317.6 54.4 315.3 57.6V89.4H304.2ZM370 90.2C360.2 90.2 353.5 84.5 353.5 76.3C353.5 67.7 360.3 62.6 371.8 62.6C375.9 62.6 379.8 63.2 383.3 64.5V60.8C383.3 55.2 379.9 52.4 373.3 52.4C369.5 52.4 365.2 53.5 359.5 56.1L355.5 47.9C362.5 44.6 368.8 43 376.2 43C388.4 43 395.3 49 395.3 59.6V89.4H383.3V86H383C379.2 88.9 374.9 90.2 370 90.2ZM363.9 76.1C363.9 79.8 367.4 82.2 372.7 82.2C376.8 82.2 380.3 81.1 383.3 78.8V71.9C380.2 70.5 376.9 69.9 373.2 69.9C367.4 69.9 363.9 72.2 363.9 76.1Z" fill="#09090B"/>
<defs>
<clipPath id="clip0_229_95">
<rect width="175" height="117" fill="white"/>
</clipPath>
</defs>
</svg>
